<svg id="Layer_1" data-name="Layer 1" xmlns="http://www.w3.org/2000/svg" viewBox="0 0 642 681"><defs><style>.cls-1{fill:#141011;}</style></defs><title>Black cactus</title><path class="cls-1" d="M215.68,550.54l2.06-130.15,2-129.48,1.15-73a23.46,23.46,0,0,0-6.7-16.18c-4-4-10.47-6.95-16.17-6.7-5.91.27-12.05,2.21-16.17,6.7a24.08,24.08,0,0,0-6.7,16.18L173.14,348l-2,129.49-1.15,73a23.42,23.42,0,0,0,6.7,16.17c4,4,10.47,7,16.17,6.7,5.91-.26,12.05-2.21,16.17-6.7a24,24,0,0,0,6.7-16.17Z"/><path class="cls-1" d="M169,424.25l-.31.13,5.47-2.31a40.35,40.35,0,0,1-10.29,2.8l6.08-.81a45.43,45.43,0,0,1-11.65,0l6.08.81a48.52,48.52,0,0,1-11.93-3.26l5.46,2.3a46.87,46.87,0,0,1-10.38-6.05l4.63,3.57a43.16,43.16,0,0,1-7.52-7.52l3.58,4.63a42.1,42.1,0,0,1-5.26-9.16l2.3,5.47a64.15,64.15,0,0,1-4-15.84l.81,6.08c-1.48-11.28-1.29-22.79-1.58-34.14q-.45-18.2-.92-36.38L139,313.6a23.84,23.84,0,0,0-6.7-16.17A17.18,17.18,0,0,0,125,292.7a17.21,17.21,0,0,0-8.81-2l-6.08.82A22.86,22.86,0,0,0,100,297.43c-4,4.41-6.86,10-6.7,16.17l1.08,42.61.54,21.17c.16,6.61.23,13.24.66,19.84.32,4.95,1,9.86,1.69,14.77a68.9,68.9,0,0,0,1.83,8.88,83.35,83.35,0,0,0,5.48,13.92,39.07,39.07,0,0,0,3.79,6.26,76.45,76.45,0,0,0,8,9.63,80.28,80.28,0,0,0,9.9,7.92,46.39,46.39,0,0,0,6.19,3.66,89.38,89.38,0,0,0,11.68,4.82,48.06,48.06,0,0,0,7.83,1.82,78.31,78.31,0,0,0,13.75,1.25c1.33,0,2.66-.15,4-.31,3.23-.39,6.51-.74,9.7-1.43,4.47-1,8.58-2.85,12.77-4.67a25.56,25.56,0,0,0,10.51-13.66A17.37,17.37,0,0,0,203,441a17,17,0,0,0-2.72-8.51c-3.14-4.88-7.83-9.18-13.66-10.51l-6.08-.82A22.86,22.86,0,0,0,169,424.25Z"/><path class="cls-1" d="M218.51,396.71a103.06,103.06,0,0,0,13.93,1,59.25,59.25,0,0,0,6.8-.43,78.51,78.51,0,0,0,12.19-2,48.75,48.75,0,0,0,20.33-11.44,38.83,38.83,0,0,0,7.34-9.52A44,44,0,0,0,284,360.85a188.29,188.29,0,0,0,2-24.18q.39-10.08.62-20.15.46-20,.31-40.06-.18-22.65-1.14-45.28a17.11,17.11,0,0,0-2-8.81,20.58,20.58,0,0,0-12.09-12.09,17.21,17.21,0,0,0-8.81-2l-6.08.82A22.73,22.73,0,0,0,246.71,215c-4,4.36-7,10.07-6.7,16.17q2,48,.54,96-.21,6.7-.49,13.43c-.18,4.28-.26,8.59-.82,12.84l.82-6.08a30.63,30.63,0,0,1-1.92,7.47l2.3-5.47a21.4,21.4,0,0,1-2.53,4.34l3.58-4.63a20.79,20.79,0,0,1-3.7,3.68l4.63-3.58a24.55,24.55,0,0,1-5,2.91l5.47-2.3a36.46,36.46,0,0,1-9.36,2.43l6.08-.81a82.52,82.52,0,0,1-21.06-.49,17.23,17.23,0,0,0-8.81,2A20.58,20.58,0,0,0,197.61,365a17.26,17.26,0,0,0-2,8.81l.82,6.08a22.76,22.76,0,0,0,5.88,10.1l4.63,3.57a22.82,22.82,0,0,0,11.54,3.13Z"/><path class="cls-1" d="M437.67,573,435,387.74l-2.66-184.31-1.5-104a23.71,23.71,0,0,0-6.7-16.17c-4-4-10.47-7-16.17-6.7-5.92.26-12,2.21-16.17,6.7s-6.79,10-6.7,16.17l2.67,185.26L390.43,469l1.5,104a23.66,23.66,0,0,0,6.7,16.17c4,4,10.47,7,16.17,6.7,5.91-.26,12.05-2.21,16.17-6.7s6.79-10,6.7-16.17Z"/><path class="cls-1" d="M419.19,441.09a79.06,79.06,0,0,0,14.2,5.47c1.51.39,3.05.7,4.59.94,3.49.54,7,1.08,10.57,1.3a52.19,52.19,0,0,0,9.35-.23,93.6,93.6,0,0,0,15.15-2.63,96.45,96.45,0,0,0,14.05-5.53,58.52,58.52,0,0,0,8.46-4.84,94.57,94.57,0,0,0,12-9.58,92.5,92.5,0,0,0,9.83-11.71,54.77,54.77,0,0,0,5.3-8.65A105.22,105.22,0,0,0,529.33,389a96.71,96.71,0,0,0,2.8-12.6c1-6.18,1.76-12.41,2.21-18.65.65-8.95.75-17.94,1-26.91l.68-29.2q.67-29.33,1.36-58.66l.17-7.24a17.21,17.21,0,0,0-2-8.81,23.51,23.51,0,0,0-20.9-14.06l-6.08.81a22.79,22.79,0,0,0-10.09,5.89l-3.58,4.62a22.75,22.75,0,0,0-3.12,11.55l-1.23,52.67q-.6,26.31-1.22,52.61a246.21,246.21,0,0,1-1.71,26.46l.82-6.08a91.56,91.56,0,0,1-6,23.21l2.3-5.47a59,59,0,0,1-7.37,12.73l3.58-4.63a59.29,59.29,0,0,1-10.43,10.45l4.63-3.58a60.4,60.4,0,0,1-13.1,7.68l5.46-2.31a58,58,0,0,1-14.74,4l6.08-.82a53,53,0,0,1-13.84,0l6.08.82a49.56,49.56,0,0,1-12.19-3.3l5.47,2.31c-.71-.3-1.41-.62-2.1-1a17.07,17.07,0,0,0-8.51-2.71A23.48,23.48,0,0,0,411,409.8c-2.8,5.31-4.21,11.74-2.3,17.62l2.3,5.46a23,23,0,0,0,8.21,8.21Z"/><path class="cls-1" d="M375.24,299.42l-1.26.17,6.08-.81c-8.41,1.12-17,1.7-25.43.61l6.08.82a46.62,46.62,0,0,1-11.63-3l5.46,2.3a32.21,32.21,0,0,1-7.12-4.12l4.63,3.58a28.43,28.43,0,0,1-4.8-4.82l3.58,4.63a30.18,30.18,0,0,1-3.71-6.39l2.3,5.47A43.59,43.59,0,0,1,346.66,287l.81,6.08c-.66-5.22-.79-10.49-1-15.75q-.35-8.59-.61-17.2-.54-17.2-.78-34.42-.48-34.29.2-68.6.38-19.32,1.13-38.65a17.23,17.23,0,0,0-2-8.81,20.58,20.58,0,0,0-12.09-12.09,17.21,17.21,0,0,0-8.81-2l-6.08.82a22.86,22.86,0,0,0-10.09,5.88l-3.58,4.63a22.71,22.71,0,0,0-3.12,11.54q-1.08,27.93-1.4,55.86t.14,56.13c.3,18.45.67,36.94,1.69,55.36a113.05,113.05,0,0,0,2.23,17.88,37.84,37.84,0,0,0,1.82,6,63.08,63.08,0,0,0,4.53,9.85,67.29,67.29,0,0,0,6,8,27.63,27.63,0,0,0,3.06,3.06,51.92,51.92,0,0,0,11.57,8,68.35,68.35,0,0,0,13.45,5,98.08,98.08,0,0,0,14.77,2,99.83,99.83,0,0,0,18.61-.64c3.42-.39,6.83-.87,10.24-1.35A25.66,25.66,0,0,0,401.07,333a17.08,17.08,0,0,0,2.72-8.51,17.37,17.37,0,0,0-.41-9.12c-1.79-5.53-5.22-10.87-10.51-13.67l-5.47-2.3a23,23,0,0,0-12.16,0Z"/></svg>