<svg id="Layer_1" data-name="Layer 1" xmlns="http://www.w3.org/2000/svg" viewBox="0 0 642 681"><defs><style>.cls-1{fill:#f61f5b;}.cls-2{fill:#69c6cd;}.cls-3{fill:#f1eae2;}</style></defs><title>Cactus glitch</title><path class="cls-1" d="M360.6,546l2.59-164,2.58-163.15,1.45-92a23.56,23.56,0,0,0-6.72-16.24c-4-4-10.52-7-16.24-6.72-5.94.26-12.1,2.21-16.24,6.72a24.18,24.18,0,0,0-6.72,16.24l-2.59,164L316.13,454l-1.45,92a23.57,23.57,0,0,0,6.73,16.24c4,4,10.51,7,16.23,6.72,5.94-.26,12.1-2.21,16.24-6.72A24.13,24.13,0,0,0,360.6,546Z"/><path class="cls-1" d="M310.64,391.91l-.62.26,5.49-2.31a50.87,50.87,0,0,1-12.82,3.44l6.1-.82a56.63,56.63,0,0,1-14.6-.06l6.11.82a60.5,60.5,0,0,1-15.11-4.15l5.48,2.32a59.36,59.36,0,0,1-12.93-7.55l4.65,3.59a54,54,0,0,1-9.4-9.35l3.59,4.65a52.49,52.49,0,0,1-6.72-11.61l2.31,5.49A80,80,0,0,1,267,356.5l.82,6.11A203.24,203.24,0,0,1,266.41,342c-.21-7.47-.38-14.94-.57-22.41l-1.17-46.26L264,247.44a23.88,23.88,0,0,0-6.72-16.23,17.19,17.19,0,0,0-7.39-4.75,17.29,17.29,0,0,0-8.85-2l-6.1.82a23,23,0,0,0-10.14,5.91c-4.06,4.42-6.88,10.07-6.72,16.23l1.35,53.23.67,26.62c.22,8.34.3,16.7.82,25,.36,5.79,1.1,11.51,1.91,17.26a88.35,88.35,0,0,0,2.36,11.49,98.36,98.36,0,0,0,6.16,15.82,50.77,50.77,0,0,0,4.86,8.11,88.64,88.64,0,0,0,9.17,11,93.1,93.1,0,0,0,11.31,9.08,57.06,57.06,0,0,0,7.76,4.58,100.61,100.61,0,0,0,13.38,5.51,58.54,58.54,0,0,0,8.76,2.12,98.92,98.92,0,0,0,14.57,1.55,90.8,90.8,0,0,0,14.71-1.41,50,50,0,0,0,8.55-2.06c3.2-1.08,6.3-2.48,9.39-3.82a22.12,22.12,0,0,0,11-22.88,17.06,17.06,0,0,0-2.73-8.53c-3.16-4.91-7.86-9.22-13.72-10.56l-6.1-.82a22.89,22.89,0,0,0-11.59,3.14Z"/><path class="cls-1" d="M370,346.29a128.88,128.88,0,0,0,17.22,1.21A74.54,74.54,0,0,0,396,347a91.26,91.26,0,0,0,14-2.38,38.77,38.77,0,0,0,3.76-1.29,86.07,86.07,0,0,0,8.87-3.89,28.05,28.05,0,0,0,3.24-2.05,69.72,69.72,0,0,0,7.34-5.85,60.76,60.76,0,0,0,6.06-7.44,25.26,25.26,0,0,0,2.24-3.52c.82-1.56,1.46-3.23,2.15-4.85s1.47-3.37,2-5.13a36.69,36.69,0,0,0,1.25-5.37c1.57-9.62,1.89-19.27,2.27-29q.48-12.69.78-25.38.57-25.25.38-50.52t-1.18-50.52c-.08-2.07-.17-4.14-.25-6.21a17.29,17.29,0,0,0-2-8.85,20.67,20.67,0,0,0-12.14-12.14,17.36,17.36,0,0,0-8.85-2l-6.1.82a22.85,22.85,0,0,0-10.13,5.9c-4,4.38-7,10.12-6.73,16.24q1.29,30.33,1.46,60.71T403.64,265q-.27,8.58-.64,17.16c-.22,5.21-.32,10.46-1,15.64l.82-6.1a38,38,0,0,1-2.31,9l2.32-5.49a26.56,26.56,0,0,1-3.42,5.88l3.59-4.64a26.39,26.39,0,0,1-4.37,4.34l4.65-3.59a31,31,0,0,1-6.65,3.85l5.48-2.32a45.9,45.9,0,0,1-11.59,3l6.11-.82c-8.83,1.15-17.8.53-26.59-.6a25.55,25.55,0,0,0-16.24,6.73,25.47,25.47,0,0,0-6.72,16.23l.82,6.11a23,23,0,0,0,5.9,10.13l4.65,3.59A22.78,22.78,0,0,0,370,346.29Z"/><path class="cls-2" d="M334.84,554l2.59-164L340,226.86l1.45-92a23.61,23.61,0,0,0-6.72-16.24c-4-4-10.52-7-16.24-6.72-5.94.26-12.1,2.21-16.24,6.72a24.16,24.16,0,0,0-6.72,16.24l-2.59,164L290.37,462l-1.45,92a23.57,23.57,0,0,0,6.73,16.24c4,4,10.51,7,16.23,6.72,5.94-.26,12.1-2.22,16.24-6.72A24.2,24.2,0,0,0,334.84,554Z"/><path class="cls-2" d="M284.88,399.93l-.62.26,5.49-2.31a51.41,51.41,0,0,1-12.82,3.44l6.1-.82a56.63,56.63,0,0,1-14.6-.06l6.11.82a60.5,60.5,0,0,1-15.11-4.15l5.48,2.31A58.92,58.92,0,0,1,252,391.88l4.64,3.59a54,54,0,0,1-9.39-9.35l3.59,4.65a52.72,52.72,0,0,1-6.72-11.61l2.31,5.48a80.26,80.26,0,0,1-5.17-20.12l.83,6.11A203.24,203.24,0,0,1,240.65,350c-.21-7.47-.38-14.94-.57-22.41l-1.17-46.26-.66-25.87a24,24,0,0,0-6.72-16.24,17.17,17.17,0,0,0-7.39-4.74,17.29,17.29,0,0,0-8.85-2l-6.1.82a23,23,0,0,0-10.14,5.9c-4.06,4.43-6.88,10.08-6.72,16.24l1.35,53.23.67,26.61c.22,8.35.3,16.71.82,25,.36,5.79,1.1,11.51,1.91,17.26a88.35,88.35,0,0,0,2.36,11.49,97.43,97.43,0,0,0,6.16,15.82,50,50,0,0,0,4.86,8.11,87.82,87.82,0,0,0,9.17,11,92.23,92.23,0,0,0,11.31,9.09,57.56,57.56,0,0,0,7.75,4.58,101.3,101.3,0,0,0,13.39,5.51,58.54,58.54,0,0,0,8.76,2.12,98.92,98.92,0,0,0,14.57,1.55,90.9,90.9,0,0,0,14.71-1.41,50.24,50.24,0,0,0,8.55-2.06c3.2-1.08,6.3-2.48,9.39-3.82a22.12,22.12,0,0,0,11-22.88,17.13,17.13,0,0,0-2.73-8.54c-3.16-4.9-7.86-9.21-13.72-10.55l-6.1-.82a22.79,22.79,0,0,0-11.59,3.14Z"/><path class="cls-2" d="M344.27,354.31a128.88,128.88,0,0,0,17.22,1.21,76.79,76.79,0,0,0,8.7-.52,90.08,90.08,0,0,0,14-2.39,36.19,36.19,0,0,0,3.76-1.28,85,85,0,0,0,8.86-3.89,28.18,28.18,0,0,0,3.25-2.05,68.59,68.59,0,0,0,7.33-5.85,59.93,59.93,0,0,0,6.07-7.44,25.86,25.86,0,0,0,2.24-3.52c.82-1.56,1.46-3.23,2.15-4.85s1.46-3.37,2-5.13a38,38,0,0,0,1.25-5.37c1.57-9.63,1.89-19.27,2.27-29q.48-12.69.77-25.38.58-25.26.38-50.52t-1.17-50.52q-.12-3.1-.26-6.21a17.36,17.36,0,0,0-2-8.85A20.67,20.67,0,0,0,409,130.62a17.29,17.29,0,0,0-8.85-2l-6.1.82a23,23,0,0,0-10.13,5.91c-4,4.38-7,10.11-6.73,16.24q1.29,30.33,1.46,60.71t-.8,60.73q-.27,8.58-.63,17.16c-.22,5.21-.32,10.46-1,15.64l.82-6.1a38,38,0,0,1-2.31,9l2.32-5.49a26.6,26.6,0,0,1-3.43,5.88l3.6-4.64a26.78,26.78,0,0,1-4.37,4.34l4.65-3.59a31.29,31.29,0,0,1-6.65,3.85l5.48-2.32a45.9,45.9,0,0,1-11.59,3l6.11-.82c-8.83,1.15-17.8.53-26.59-.6A25.61,25.61,0,0,0,328,315.11a25.47,25.47,0,0,0-6.72,16.24l.82,6.1a22.93,22.93,0,0,0,5.9,10.14l4.65,3.59a22.88,22.88,0,0,0,11.59,3.13Z"/><path class="cls-3" d="M346.85,550.71l2.59-164L352,223.57l1.46-92a23.57,23.57,0,0,0-6.73-16.24c-4-4-10.52-7-16.24-6.72-5.93.26-12.09,2.21-16.23,6.72a24.17,24.17,0,0,0-6.73,16.24l-2.59,164-2.57,163.16-1.45,92A23.52,23.52,0,0,0,307.65,567c4,4,10.52,7,16.24,6.72,5.94-.27,12.09-2.22,16.23-6.72a24.21,24.21,0,0,0,6.73-16.24Z"/><path class="cls-3" d="M296.88,396.64l-.61.26,5.48-2.31A51.29,51.29,0,0,1,288.93,398l6.11-.82a56.19,56.19,0,0,1-14.6-.07l6.1.82a60.06,60.06,0,0,1-15.11-4.14l5.49,2.31A59,59,0,0,1,264,388.59l4.65,3.59a54.36,54.36,0,0,1-9.4-9.35l3.59,4.65a52.72,52.72,0,0,1-6.72-11.61l2.32,5.48a79.42,79.42,0,0,1-5.17-20.12l.82,6.11a203.23,203.23,0,0,1-1.41-20.63c-.22-7.47-.38-14.94-.57-22.41q-.6-23.13-1.18-46.26l-.65-25.87a24,24,0,0,0-6.73-16.24,17.11,17.11,0,0,0-7.39-4.74,17.26,17.26,0,0,0-8.85-2l-6.1.82a22.94,22.94,0,0,0-10.13,5.9c-4.07,4.43-6.88,10.08-6.73,16.24l1.35,53.23.68,26.61c.21,8.35.3,16.71.82,25,.36,5.79,1.1,11.51,1.91,17.26a86.69,86.69,0,0,0,2.35,11.49,98.4,98.4,0,0,0,6.17,15.82,49.33,49.33,0,0,0,4.86,8.11,87,87,0,0,0,9.17,11A91.48,91.48,0,0,0,243,429.82a58,58,0,0,0,7.75,4.58,101.17,101.17,0,0,0,13.38,5.51,59,59,0,0,0,8.77,2.12,100.16,100.16,0,0,0,14.56,1.55,92.17,92.17,0,0,0,14.72-1.41,50.24,50.24,0,0,0,8.55-2.06c3.2-1.08,6.29-2.48,9.38-3.82a22.12,22.12,0,0,0,11-22.88,17.09,17.09,0,0,0-2.72-8.54c-3.16-4.9-7.87-9.22-13.72-10.55l-6.11-.82a22.82,22.82,0,0,0-11.59,3.14Z"/><path class="cls-3" d="M356.27,351a128.88,128.88,0,0,0,17.22,1.21,76.82,76.82,0,0,0,8.71-.52,89.76,89.76,0,0,0,14-2.39A37.81,37.81,0,0,0,400,348a82.26,82.26,0,0,0,8.87-3.9,26.68,26.68,0,0,0,3.24-2,67.56,67.56,0,0,0,7.34-5.86,60.92,60.92,0,0,0,6.07-7.43,27.55,27.55,0,0,0,2.24-3.52c.82-1.57,1.46-3.23,2.14-4.85s1.47-3.37,2-5.13a39.26,39.26,0,0,0,1.25-5.38c1.56-9.62,1.89-19.26,2.26-29q.49-12.69.78-25.38.58-25.26.38-50.52t-1.18-50.52q-.12-3.1-.25-6.22a17.23,17.23,0,0,0-2-8.84A20.69,20.69,0,0,0,421,127.33a17.29,17.29,0,0,0-8.85-2l-6.11.82a22.92,22.92,0,0,0-10.13,5.91c-4,4.38-7,10.11-6.72,16.23q1.27,30.34,1.45,60.72t-.79,60.72q-.27,8.6-.63,17.17c-.22,5.21-.32,10.46-1,15.64l.82-6.1a38.15,38.15,0,0,1-2.3,9l2.31-5.49a26.18,26.18,0,0,1-3.42,5.88l3.59-4.64a26.33,26.33,0,0,1-4.36,4.34l4.64-3.59a30.36,30.36,0,0,1-6.65,3.84l5.49-2.31a46.43,46.43,0,0,1-11.59,3l6.1-.82c-8.82,1.15-17.79.53-26.59-.6A25.62,25.62,0,0,0,340,311.82a25.55,25.55,0,0,0-6.73,16.24l.82,6.1A23,23,0,0,0,340,344.3l4.64,3.59A22.9,22.9,0,0,0,356.27,351Z"/></svg>