<?xml version="1.0" encoding="utf-8"?>
<!-- Generator: Adobe Illustrator 24.0.0, SVG Export Plug-In . SVG Version: 6.00 Build 0)  -->
<svg version="1.1" id="Layer_1" xmlns="http://www.w3.org/2000/svg" xmlns:xlink="http://www.w3.org/1999/xlink" x="0px" y="0px"
	 viewBox="0 0 175.7 54.7" style="enable-background:new 0 0 175.7 54.7;" xml:space="preserve">
<style type="text/css">
	.st0{fill:none;stroke:#625252;stroke-width:2;stroke-miterlimit:10;}
</style>
<polyline class="st0" points="26,54.2 175.2,54.2 175.2,49 169.5,49 169.5,41.5 161.6,41.5 161.6,33.8 149.7,33.8 149.7,25.2 
	128.3,25.2 128.3,19.5 119,19.5 119,8.6 112.3,8.6 112.3,4 105.5,4 105.5,0.5 90.6,0.5 90.6,5.4 69.4,5.4 69.4,8.6 62.1,8.6 
	62.1,12.7 57.2,12.7 57.2,25.2 43.7,25.2 43.7,29 39.9,29 39.9,33.6 10.3,33.6 10.3,39 7.3,39 7.3,49.6 0,49.6 "/>
</svg>
