<?xml version="1.0" encoding="utf-8"?>
<!-- Generator: Adobe Illustrator 24.0.0, SVG Export Plug-In . SVG Version: 6.00 Build 0)  -->
<svg version="1.1" id="Layer_1" xmlns="http://www.w3.org/2000/svg" xmlns:xlink="http://www.w3.org/1999/xlink" x="0px" y="0px"
	 viewBox="0 0 841.9 595.3" style="enable-background:new 0 0 841.9 595.3;" xml:space="preserve">
<style type="text/css">
	.st0{fill:#51C7E3;}
	.st1{fill:#EF4270;}
	.st2{fill:#EEE8E4;stroke:#EEE8E4;stroke-miterlimit:10;}
	.st3{fill:#201E20;stroke:#201E20;stroke-miterlimit:10;}
</style>
<polygon class="st0" points="379.6,85.4 379.6,237 358.8,237 358.8,260.6 322.9,260.6 322.9,281.8 289.5,281.8 289.5,306.2 
	265.1,306.2 265.1,329 217,329 217,307.9 194.2,306.2 194.2,285 170.6,285 170.6,236.2 147.7,236.2 147.7,376.3 170.6,376.3 
	170.6,397.5 193.4,397.5 193.4,422.7 217,422.7 217.8,446.4 240.6,446.4 240.6,469.2 263.7,469.2 263.7,562.1 310.7,562.1 
	310.7,539.2 287.1,538.4 287.1,515.6 309.9,514.8 309.9,493.6 334.3,493.6 334.3,470.8 357.1,470.8 357.1,492.8 379.6,492.8 
	379.6,562.1 426.4,562.1 426.4,539.2 404.4,540.1 403.6,447.2 426.4,446.4 426.4,422.7 450,422.7 450,388.5 472,387.7 472,307 
	495.7,307 495.7,328.2 519.3,328.2 519.3,283.4 474.5,283.4 473.7,237.8 565.7,238.6 565.7,214.2 497.3,213.3 498.1,187.3 
	610.5,187.3 610.5,85.4 591,85.4 591,62.6 402.8,62.6 402.8,85.4 "/>
<polygon class="st1" points="463.2,96.6 463.2,248.1 442.4,248.1 442.4,271.8 406.5,271.8 406.5,292.9 373.1,292.9 373.1,317.4 
	348.7,317.4 348.7,340.2 300.6,340.2 300.6,319 277.8,317.4 277.8,296.2 254.2,296.2 254.2,247.3 231.4,247.3 231.4,387.4 
	254.2,387.4 254.2,408.6 277,408.6 277,433.9 300.6,433.9 301.4,457.5 324.2,457.5 324.2,480.3 347.3,480.3 347.3,573.2 
	394.3,573.2 394.3,550.4 370.7,549.6 370.7,526.8 393.5,526 393.5,504.8 417.9,504.8 417.9,482 440.8,482 440.8,504 463.2,504 
	463.2,573.2 510,573.2 510,550.4 488,551.2 487.2,458.3 510,457.5 510,433.9 533.6,433.9 533.6,399.7 555.6,398.9 555.6,318.2 
	579.3,318.2 579.3,339.4 602.9,339.4 602.9,294.6 558.1,294.6 557.3,248.9 649.3,249.8 649.3,225.3 580.9,224.5 581.7,198.4 
	694.1,198.4 694.1,96.6 674.6,96.6 674.6,73.8 486.4,73.8 486.4,96.6 "/>
<polygon class="st2" points="419.2,96.6 419.2,248.1 398.4,248.1 398.4,271.8 362.5,271.8 362.5,292.9 329.1,292.9 329.1,317.4 
	304.7,317.4 304.7,340.2 256.6,340.2 256.6,319 233.8,317.4 233.8,296.2 210.2,296.2 210.2,247.3 187.4,247.3 187.4,387.4 
	210.2,387.4 210.2,408.6 233,408.6 233,433.9 256.6,433.9 257.4,457.5 280.2,457.5 280.2,480.3 303.3,480.3 303.3,573.2 
	350.3,573.2 350.3,550.4 326.7,549.6 326.7,526.8 349.5,526 349.5,504.8 373.9,504.8 373.9,482 396.7,482 396.7,504 419.2,504 
	419.2,573.2 466,573.2 466,550.4 444,551.2 443.2,458.3 466,457.5 466,433.9 489.6,433.9 489.6,399.7 511.6,398.9 511.6,318.2 
	535.3,318.2 535.3,339.4 558.9,339.4 558.9,294.6 514.1,294.6 513.3,248.9 605.3,249.8 605.3,225.3 536.9,224.5 537.7,198.4 
	650.1,198.4 650.1,96.6 630.6,96.6 630.6,73.8 442.4,73.8 442.4,96.6 "/>
<rect x="467.6" y="108" class="st3" width="22" height="22"/>
</svg>
