<?xml version="1.0" encoding="utf-8"?>
<!-- Generator: Adobe Illustrator 24.0.0, SVG Export Plug-In . SVG Version: 6.00 Build 0)  -->
<svg version="1.1" id="Layer_1" xmlns="http://www.w3.org/2000/svg" xmlns:xlink="http://www.w3.org/1999/xlink" x="0px" y="0px"
	 viewBox="0 0 841.9 595.3" style="enable-background:new 0 0 841.9 595.3;" xml:space="preserve">
<style type="text/css">
	.st0{fill:#201E20;stroke:#201E20;stroke-miterlimit:10;}
	.st1{fill:#EEE8E4;stroke:#EEE8E4;stroke-miterlimit:10;}
</style>
<polygon class="st0" points="376.1,100.6 376.1,224.8 359.1,224.8 359.1,244.1 329.7,244.1 329.7,261.5 302.4,261.5 302.4,281.5 
	282.3,281.5 282.3,300.2 243,300.2 243,282.9 224.3,281.5 224.3,264.2 204.9,264.2 204.9,224.1 186.2,224.1 186.2,338.9 
	204.9,338.9 204.9,356.3 223.6,356.3 223.6,377 243,377 243.6,396.3 262.3,396.3 262.3,415 281.2,415 281.2,491.1 319.7,491.1 
	319.7,472.4 300.4,471.7 300.4,453.1 319,452.4 319,435 339.1,435 339.1,416.3 357.8,416.3 357.8,434.4 376.1,434.4 376.1,491.1 
	414.5,491.1 414.5,472.4 396.5,473.1 395.8,397 414.5,396.3 414.5,377 433.8,377 433.8,348.9 451.9,348.3 451.9,282.2 471.2,282.2 
	471.2,299.5 490.6,299.5 490.6,262.8 453.9,262.8 453.2,225.5 528.6,226.1 528.6,206.1 472.6,205.4 473.2,184.1 565.3,184.1 
	565.3,100.6 549.3,100.6 549.3,81.9 395.1,81.9 395.1,100.6 "/>
<rect x="415.8" y="110" class="st1" width="18" height="18"/>
</svg>
