<svg id="Layer_1" data-name="Layer 1" xmlns="http://www.w3.org/2000/svg" viewBox="0 0 78.89 59.21"><defs><style>.cls-1{fill:#62c5e4;}.cls-2,.cls-4,.cls-6,.cls-8{fill:none;stroke-miterlimit:10;}.cls-2{stroke:#62c5e4;}.cls-3{fill:#292423;}.cls-4{stroke:#282422;}.cls-5{fill:#e83669;}.cls-6{stroke:#e83669;}.cls-7{fill:#f4efec;}.cls-8{stroke:#f4efec;}</style></defs><title>glitch pterodaktil</title><path class="cls-1" d="M88,39.06V35.37H85.4V32.16H82.08v-5.1H79V56.93l-5.11,0V53.86H69.57V49H66.25V46h-2V42.89H58.59V46.2H57.06V49H53.74v4.85H50.17v2.56H46.59v3.06H67v3.83H73.4V67.4H79V71H90V39.06ZM60.12,55.52H57.06V52.2h3.06Z" transform="translate(-46.09 -26.56)"/><path class="cls-2" d="M88,39.06V35.37H85.4V32.16H82.08v-5.1H79V56.93l-5.11,0V53.86H69.57V49H66.25V46h-2V42.89H58.59V46.2H57.06V49H53.74v4.85H50.17v2.56H46.59v3.06H67v3.83H73.4V67.4H79V71H90V39.06ZM60.12,55.52H57.06V52.2h3.06Z" transform="translate(-46.09 -26.56)"/><rect class="cls-3" x="10.97" y="25.65" width="3.06" height="3.32"/><rect class="cls-4" x="10.97" y="25.65" width="3.06" height="3.32"/><polygon class="cls-1" points="62.67 55.14 70.84 55.14 70.84 52.07 63.44 52.07 63.44 47.99 73.39 47.99 73.39 44.67 61.65 44.67 61.65 41.1 58.84 41.1 58.84 37.27 55.78 37.27 55.78 32.67 52.46 32.67 52.46 29.73 49.14 29.73 49.14 26.8 48.12 26.8 48.12 58.71 62.67 58.71 62.67 55.14"/><polygon class="cls-2" points="62.67 55.14 70.84 55.14 70.84 52.07 63.44 52.07 63.44 47.99 73.39 47.99 73.39 44.67 61.65 44.67 61.65 41.1 58.84 41.1 58.84 37.27 55.78 37.27 55.78 32.67 52.46 32.67 52.46 29.73 49.14 29.73 49.14 26.8 48.12 26.8 48.12 58.71 62.67 58.71 62.67 55.14"/><path class="cls-5" d="M93,39.06V35.37H90.4V32.16H87.08v-5.1H84V56.93l-5.11,0V53.86H74.57V49H71.25V46h-2V42.89H63.59V46.2H62.06V49H58.74v4.85H55.17v2.56H51.59v3.06H72v3.83H78.4V67.4H84V71H95V39.06ZM65.12,55.52H62.06V52.2h3.06Z" transform="translate(-46.09 -26.56)"/><path class="cls-6" d="M93,39.06V35.37H90.4V32.16H87.08v-5.1H84V56.93l-5.11,0V53.86H74.57V49H71.25V46h-2V42.89H63.59V46.2H62.06V49H58.74v4.85H55.17v2.56H51.59v3.06H72v3.83H78.4V67.4H84V71H95V39.06ZM65.12,55.52H62.06V52.2h3.06Z" transform="translate(-46.09 -26.56)"/><rect class="cls-3" x="15.97" y="25.65" width="3.06" height="3.32"/><rect class="cls-4" x="15.97" y="25.65" width="3.06" height="3.32"/><polygon class="cls-5" points="67.67 55.14 75.84 55.14 75.84 52.07 68.44 52.07 68.44 47.99 78.39 47.99 78.39 44.67 66.65 44.67 66.65 41.1 63.84 41.1 63.84 37.27 60.78 37.27 60.78 32.67 57.46 32.67 57.46 29.73 54.14 29.73 54.14 26.8 53.12 26.8 53.12 58.71 67.67 58.71 67.67 55.14"/><polygon class="cls-6" points="67.67 55.14 75.84 55.14 75.84 52.07 68.44 52.07 68.44 47.99 78.39 47.99 78.39 44.67 66.65 44.67 66.65 41.1 63.84 41.1 63.84 37.27 60.78 37.27 60.78 32.67 57.46 32.67 57.46 29.73 54.14 29.73 54.14 26.8 53.12 26.8 53.12 58.71 67.67 58.71 67.67 55.14"/><path class="cls-7" d="M91,39.06V35.37H88.4V32.16H85.08v-5.1H82V56.93l-5.11,0V53.86H72.57V49H69.25V46h-2V42.89H61.59V46.2H60.06V49H56.74v4.85H53.17v2.56H49.59v3.06H70v3.83H76.4V67.4H82V71H93V39.06ZM63.12,55.52H60.06V52.2h3.06Z" transform="translate(-46.09 -26.56)"/><path class="cls-8" d="M91,39.06V35.37H88.4V32.16H85.08v-5.1H82V56.93l-5.11,0V53.86H72.57V49H69.25V46h-2V42.89H61.59V46.2H60.06V49H56.74v4.85H53.17v2.56H49.59v3.06H70v3.83H76.4V67.4H82V71H93V39.06ZM63.12,55.52H60.06V52.2h3.06Z" transform="translate(-46.09 -26.56)"/><rect class="cls-3" x="13.97" y="25.65" width="3.06" height="3.32"/><rect class="cls-4" x="13.97" y="25.65" width="3.06" height="3.32"/><polygon class="cls-7" points="65.67 55.14 73.84 55.14 73.84 52.07 66.44 52.07 66.44 47.99 76.39 47.99 76.39 44.67 64.65 44.67 64.65 41.1 61.84 41.1 61.84 37.27 58.78 37.27 58.78 32.67 55.46 32.67 55.46 29.73 52.14 29.73 52.14 26.8 51.12 26.8 51.12 58.71 65.67 58.71 65.67 55.14"/><polygon class="cls-8" points="65.67 55.14 73.84 55.14 73.84 52.07 66.44 52.07 66.44 47.99 76.39 47.99 76.39 44.67 64.65 44.67 64.65 41.1 61.84 41.1 61.84 37.27 58.78 37.27 58.78 32.67 55.46 32.67 55.46 29.73 52.14 29.73 52.14 26.8 51.12 26.8 51.12 58.71 65.67 58.71 65.67 55.14"/></svg>