<svg id="Layer_1" data-name="Layer 1" xmlns="http://www.w3.org/2000/svg" viewBox="0 0 153.56 122.34"><defs><style>.cls-1{fill:#292423;}.cls-2,.cls-4{fill:none;stroke-miterlimit:10;}.cls-2{stroke:#282422;}.cls-3{fill:#f4efec;}.cls-4{stroke:#f4efec;}</style></defs><title>ptero</title><polygon class="cls-1" points="77.45 68.53 77.45 38.66 80.52 38.66 80.52 43.76 83.83 43.76 83.83 46.97 86.39 46.97 86.39 50.66 89.45 50.66 89.45 53.59 92.77 53.59 92.77 56.53 96.09 56.53 96.09 61.13 99.15 61.13 99.15 64.95 101.96 64.95 101.96 68.53 113.71 68.53 113.71 71.85 103.75 71.85 103.75 75.93 111.15 75.93 111.15 79 102.98 79 102.98 82.57 77.45 82.57 77.45 79 71.83 79 71.83 74.91 65.45 74.91 65.45 71.08 45.03 71.08 45.03 68.02 48.6 68.02 48.6 65.47 52.18 65.47 52.18 60.61 55.49 60.61 55.49 57.81 57.03 57.81 57.03 54.49 62.64 54.49 62.64 57.55 64.69 57.55 64.69 60.61 68.01 60.61 68.01 65.47 72.35 65.47 72.35 68.27 72.35 68.55 77.45 68.53"/><polygon class="cls-2" points="77.45 68.53 77.45 38.66 80.52 38.66 80.52 43.76 83.83 43.76 83.83 46.97 86.39 46.97 86.39 50.66 89.45 50.66 89.45 53.59 92.77 53.59 92.77 56.53 96.09 56.53 96.09 61.13 99.15 61.13 99.15 64.95 101.96 64.95 101.96 68.53 113.71 68.53 113.71 71.85 103.75 71.85 103.75 75.93 111.15 75.93 111.15 79 102.98 79 102.98 82.57 77.45 82.57 77.45 79 71.83 79 71.83 74.91 65.45 74.91 65.45 71.08 45.03 71.08 45.03 68.02 48.6 68.02 48.6 65.47 52.18 65.47 52.18 60.61 55.49 60.61 55.49 57.81 57.03 57.81 57.03 54.49 62.64 54.49 62.64 57.55 64.69 57.55 64.69 60.61 68.01 60.61 68.01 65.47 72.35 65.47 72.35 68.27 72.35 68.55 77.45 68.53"/><rect class="cls-3" x="55.49" y="63.81" width="3.06" height="3.32"/><rect class="cls-4" x="55.49" y="63.81" width="3.06" height="3.32"/></svg>