<svg id="Layer_1" data-name="Layer 1" xmlns="http://www.w3.org/2000/svg" viewBox="0 0 379.69 261"><defs><style>.cls-1{fill:#fbfbfb;}.cls-2,.cls-3,.cls-4,.cls-7{fill:none;stroke-miterlimit:10;}.cls-2{stroke:#666167;}.cls-2,.cls-3{stroke-width:2px;}.cls-3,.cls-4,.cls-7{stroke:#a299a7;}.cls-5{fill:#f9f5ed;}.cls-6{fill:#a299a7;}.cls-7{stroke-width:1.25px;}</style></defs><title>prozorcheto</title><path class="cls-1" d="M333.61,243.84H46A15.85,15.85,0,0,1,30.1,228V47.38A15.85,15.85,0,0,1,46,31.54H333.61a15.84,15.84,0,0,1,15.84,15.84V228a15.85,15.85,0,0,1-15.84,15.85"/><rect class="cls-2" x="30.1" y="31.54" width="319.35" height="212.3" rx="15.84"/><line class="cls-3" x1="31.1" y1="54.6" x2="348.29" y2="54.6"/><line class="cls-4" x1="320.13" y1="32.52" x2="320.13" y2="54.6"/><line class="cls-4" x1="291.48" y1="54.6" x2="291.48" y2="32.52"/><line class="cls-4" x1="262.62" y1="54.6" x2="262.62" y2="32.52"/><line class="cls-5" x1="326.71" y1="37.82" x2="339.36" y2="50.43"/><path class="cls-6" d="M326.26,38.26l11.07,11,1.59,1.58a.62.62,0,0,0,.88-.88L328.74,39l-1.59-1.58c-.57-.57-1.46.31-.89.88"/><line class="cls-5" x1="326.71" y1="50.43" x2="339.36" y2="37.82"/><path class="cls-6" d="M327.15,50.87l11.06-11,1.59-1.59a.62.62,0,0,0-.88-.88l-11.07,11L326.26,50c-.57.57.32,1.45.89.88"/><path class="cls-1" d="M311.75,48.58H301.66a1.31,1.31,0,0,1-1.31-1.31V37a1.3,1.3,0,0,1,1.31-1.3h10.09a1.31,1.31,0,0,1,1.31,1.3V47.27a1.31,1.31,0,0,1-1.31,1.31"/><rect class="cls-4" x="300.35" y="35.74" width="12.71" height="12.84" rx="1.31"/><path class="cls-1" d="M310,50.48H299.86a1.31,1.31,0,0,1-1.31-1.31V38.94a1.31,1.31,0,0,1,1.31-1.31H310a1.31,1.31,0,0,1,1.31,1.31V49.17A1.31,1.31,0,0,1,310,50.48"/><rect class="cls-7" x="298.55" y="37.63" width="12.71" height="12.84" rx="1.31"/><path class="cls-6" d="M268.4,49.21h17.3a.63.63,0,0,0,0-1.25H268.4a.63.63,0,0,0,0,1.25"/></svg>